# This file uses centimeters as units for non-parametric coordinates.

mtllib Metal_Door.mtl
v 0.703837 -1.000000 1.691290
v 0.703837 -1.000000 -1.000000
v 0.703837 4.540103 1.691290
v 0.703837 4.540103 -1.000000
v 0.703837 -0.908371 1.613048
v 0.703837 -0.908371 -0.921758
v 0.703837 4.448474 1.613048
v 0.703837 4.448474 -0.921758
v 0.730983 -0.908371 1.613048
v 0.730983 -0.908371 -0.921758
v 0.730983 4.448474 1.613048
v 0.730983 4.448474 -0.921758
v 0.730983 -0.883360 1.574098
v 0.730983 -0.883360 -0.882809
v 0.730983 4.423463 1.574098
v 0.730983 4.423463 -0.882808
v 0.697956 -0.883360 1.574098
v 0.697957 -0.883360 -0.882809
v 0.697956 4.423463 1.574098
v 0.697957 4.423463 -0.882808
v 0.696881 1.742480 -0.733647
v 0.697097 1.742480 -0.793342
v 0.696881 1.797623 -0.733647
v 0.697097 1.797623 -0.793342
v 0.630280 1.742480 -0.733647
v 0.630280 1.742480 -0.793342
v 0.630280 1.797623 -0.733647
v 0.630280 1.797623 -0.793342
v 0.629462 1.855792 -0.732675
v 0.629462 1.855792 -0.794314
v 0.582505 1.855792 -0.732675
v 0.582505 1.855792 -0.794314
v 0.629462 1.741581 -0.675404
v 0.629462 1.798521 -0.675404
v 0.582505 1.741581 -0.675404
v 0.582505 1.798521 -0.675404
v 0.629462 1.684310 -0.732675
v 0.629462 1.684310 -0.794314
v 0.582505 1.684310 -0.732675
v 0.582505 1.684310 -0.794314
v 0.629462 1.741581 -0.851585
v 0.629462 1.798521 -0.851585
v 0.582505 1.741581 -0.851585
v 0.582505 1.798521 -0.851585
v 0.551741 1.805792 -0.732675
v 0.551741 1.805792 -0.794314
v 0.551741 1.734310 -0.732675
v 0.551741 1.734310 -0.794314
v 0.996157 4.540104 1.691290
v 0.996157 4.540104 -1.000000
v 0.996158 -1.000000 1.691290
v 0.996158 -1.000000 -1.000000
v 0.996157 4.448475 1.613048
v 0.996157 4.448475 -0.921758
v 0.996158 -0.908370 1.613048
v 0.996158 -0.908370 -0.921758
v 0.969011 4.448475 1.613048
v 0.969011 4.448475 -0.921758
v 0.969012 -0.908370 1.613048
v 0.969012 -0.908370 -0.921758
v 0.969011 4.423464 1.574098
v 0.969011 4.423464 -0.882809
v 0.969012 -0.883359 1.574098
v 0.969012 -0.883359 -0.882808
v 1.002038 4.423464 1.574098
v 1.002037 4.423464 -0.882809
v 1.002038 -0.883359 1.574098
v 1.002038 -0.883359 -0.882808
v 1.003114 1.797624 -0.733647
v 1.002897 1.797624 -0.793342
v 1.003114 1.742481 -0.733647
v 1.002897 1.742481 -0.793342
v 1.069714 1.797624 -0.733647
v 1.069714 1.797624 -0.793342
v 1.069714 1.742481 -0.733647
v 1.069714 1.742481 -0.793342
v 1.070532 1.684312 -0.732675
v 1.070532 1.684312 -0.794314
v 1.117489 1.684312 -0.732675
v 1.117489 1.684312 -0.794314
v 1.070532 1.798522 -0.675404
v 1.070532 1.741583 -0.675404
v 1.117489 1.798522 -0.675404
v 1.117489 1.741583 -0.675404
v 1.070532 1.855794 -0.732675
v 1.070532 1.855794 -0.794314
v 1.117489 1.855794 -0.732675
v 1.117489 1.855794 -0.794314
v 1.070532 1.798522 -0.851585
v 1.070532 1.741583 -0.851585
v 1.117489 1.798522 -0.851585
v 1.117489 1.741583 -0.851585
v 1.148253 1.734311 -0.732675
v 1.148253 1.734311 -0.794314
v 1.148253 1.805794 -0.732675
v 1.148253 1.805794 -0.794314
vt 0.262914 0.500191
vt 0.027052 0.500915
vt 0.033884 0.492864
vt 0.256033 0.492182
vt 0.045338 0.728680
vt 0.044656 0.506531
vt 0.047035 0.506524
vt 0.047717 0.728672
vt 0.261425 0.014661
vt 0.254592 0.022712
vt 0.025562 0.015384
vt 0.032444 0.023394
vt 0.735073 0.484131
vt 0.512925 0.484812
vt 0.516331 0.482610
vt 0.731653 0.481949
vt 0.319833 0.728672
vt 0.320514 0.506524
vt 0.322893 0.506531
vt 0.322212 0.728680
vt 0.305060 0.506531
vt 0.303620 0.976001
vt 0.301241 0.975994
vt 0.302681 0.506524
vt 0.982189 0.015335
vt 0.983629 0.484805
vt 0.981250 0.484812
vt 0.979810 0.015342
vt 0.314224 0.506533
vt 0.313563 0.721854
vt 0.310669 0.721845
vt 0.311329 0.506524
vt 0.511484 0.015342
vt 0.733633 0.014661
vt 0.730226 0.016863
vt 0.514905 0.017524
vt 0.469603 0.971610
vt 0.471030 0.506524
vt 0.473924 0.506533
vt 0.472497 0.971619
vt 0.038387 0.506524
vt 0.039047 0.721845
vt 0.036153 0.721854
vt 0.035492 0.506533
vt 0.971307 0.484812
vt 0.969880 0.019726
vt 0.972774 0.019717
vt 0.974201 0.484803
vt 0.363561 0.512377
vt 0.358329 0.512380
vt 0.358347 0.506524
vt 0.363579 0.506540
vt 0.956004 0.490421
vt 0.957430 0.955507
vt 0.742109 0.956168
vt 0.740682 0.491082
vt 0.396047 0.512361
vt 0.391214 0.512375
vt 0.391196 0.506539
vt 0.396029 0.506524
vt 0.094011 0.506539
vt 0.098844 0.506524
vt 0.098862 0.512380
vt 0.094029 0.512394
vt 0.158710 0.506524
vt 0.163942 0.506527
vt 0.163960 0.512364
vt 0.158728 0.512380
vt 0.352705 0.511556
vt 0.352688 0.516958
vt 0.348573 0.516945
vt 0.348590 0.511543
vt 0.118341 0.506536
vt 0.118326 0.511527
vt 0.114210 0.511514
vt 0.114226 0.506524
vt 0.077512 0.511543
vt 0.077528 0.516945
vt 0.073413 0.516958
vt 0.073397 0.511556
vt 0.379648 0.511514
vt 0.379663 0.506524
vt 0.383778 0.506536
vt 0.383763 0.511527
vt 0.348605 0.506524
vt 0.352720 0.506536
vt 0.352673 0.521977
vt 0.348558 0.521964
vt 0.073429 0.521977
vt 0.077544 0.521964
vt 0.073381 0.506536
vt 0.077496 0.506524
vt 0.179325 0.510344
vt 0.182990 0.513888
vt 0.186407 0.517305
vt 0.189952 0.520970
vt 0.182853 0.520970
vt 0.179325 0.517442
vt 0.190106 0.513606
vt 0.193771 0.517151
vt 0.183145 0.506524
vt 0.186689 0.510189
vt 0.190243 0.506524
vt 0.193771 0.510052
vt 0.436732 0.517151
vt 0.432913 0.520970
vt 0.429814 0.517872
vt 0.433634 0.514052
vt 0.422286 0.510344
vt 0.426106 0.506524
vt 0.429204 0.509622
vt 0.425384 0.513442
vt 0.433204 0.506524
vt 0.436733 0.510052
vt 0.422286 0.517442
vt 0.425814 0.520970
vt 0.270013 0.014661
vt 0.505876 0.015384
vt 0.498994 0.023394
vt 0.276845 0.022712
vt 0.200062 0.728680
vt 0.199380 0.506531
vt 0.201759 0.506524
vt 0.202441 0.728672
vt 0.268523 0.500191
vt 0.275405 0.492182
vt 0.504386 0.500915
vt 0.497554 0.492864
vt 0.742122 0.014661
vt 0.964271 0.015342
vt 0.960851 0.017524
vt 0.745529 0.016863
vt 0.444720 0.506524
vt 0.445402 0.728672
vt 0.443023 0.728680
vt 0.442341 0.506531
vt 0.217214 0.975994
vt 0.218654 0.506524
vt 0.221033 0.506531
vt 0.219593 0.976001
vt 0.461615 0.976001
vt 0.460175 0.506531
vt 0.462554 0.506524
vt 0.463994 0.975994
vt 0.451671 0.721854
vt 0.451011 0.506533
vt 0.453905 0.506524
vt 0.454566 0.721845
vt 0.962831 0.484812
vt 0.740682 0.484131
vt 0.744102 0.481949
vt 0.959424 0.482610
vt 0.029883 0.506533
vt 0.028457 0.971619
vt 0.025562 0.971610
vt 0.026989 0.506524
vt 0.210944 0.506524
vt 0.211605 0.721845
vt 0.208710 0.721854
vt 0.208050 0.506533
vt 0.229536 0.506524
vt 0.230963 0.971610
vt 0.228069 0.971619
vt 0.226642 0.506533
vt 0.406887 0.512377
vt 0.401656 0.512380
vt 0.401674 0.506524
vt 0.406905 0.506540
vt 0.511484 0.955507
vt 0.512911 0.490421
vt 0.728233 0.491082
vt 0.726806 0.956168
vt 0.148269 0.506524
vt 0.153101 0.506539
vt 0.153083 0.512375
vt 0.148251 0.512361
vt 0.374039 0.512380
vt 0.369206 0.512394
vt 0.369188 0.506539
vt 0.374021 0.506524
vt 0.083153 0.506524
vt 0.088384 0.506527
vt 0.088402 0.512364
vt 0.083171 0.512380
vt 0.169585 0.511938
vt 0.169569 0.506536
vt 0.173684 0.506524
vt 0.173700 0.511926
vt 0.138511 0.511514
vt 0.138526 0.506524
vt 0.142642 0.506536
vt 0.142626 0.511527
vt 0.416645 0.511543
vt 0.416662 0.516945
vt 0.412546 0.516958
vt 0.412530 0.511556
vt 0.132902 0.506536
vt 0.132887 0.511527
vt 0.128772 0.511514
vt 0.128787 0.506524
vt 0.108602 0.506536
vt 0.108586 0.511556
vt 0.104471 0.511543
vt 0.104486 0.506524
vt 0.173716 0.516945
vt 0.169601 0.516958
vt 0.412562 0.521977
vt 0.416677 0.521964
vt 0.412514 0.506536
vt 0.416630 0.506524
vt 0.057145 0.520970
vt 0.060690 0.517305
vt 0.064107 0.513888
vt 0.067772 0.510344
vt 0.067772 0.517442
vt 0.064244 0.520970
vt 0.060408 0.510189
vt 0.063952 0.506524
vt 0.053326 0.517151
vt 0.056991 0.513606
vt 0.053326 0.510052
vt 0.056854 0.506524
vt 0.328502 0.510344
vt 0.332322 0.506524
vt 0.335421 0.509622
vt 0.331601 0.513442
vt 0.342949 0.517151
vt 0.339129 0.520970
vt 0.336031 0.517872
vt 0.339850 0.514052
vt 0.332031 0.520970
vt 0.328502 0.517442
vt 0.342949 0.510052
vt 0.339420 0.506524
vt 0.270013 0.506524
vt 0.295632 0.506602
vt 0.294142 0.992133
vt 0.268523 0.992055
vt 0.505876 0.742386
vt 0.480257 0.742465
vt 0.479533 0.506602
vt 0.505152 0.506524
vt 0.990148 0.975952
vt 0.964529 0.976030
vt 0.963039 0.490500
vt 0.988658 0.490421
vt 0.262914 0.742386
vt 0.237296 0.742465
vt 0.236572 0.506602
vt 0.262191 0.506524
vn -0.177300 0.430031 0.885233
vn -0.176640 0.430083 -0.885340
vn -0.987476 -0.067482 -0.142610
vn -0.987516 -0.067375 0.142386
vn -0.692979 -0.308369 -0.651682
vn -0.694228 -0.307855 0.650594
vn -0.176638 -0.430083 0.885340
vn -0.987516 0.067375 -0.142386
vn -0.177298 -0.430031 -0.885233
vn -0.987476 0.067482 0.142610
vn -0.894092 0.188169 0.406439
vn -0.893851 0.188373 -0.406875
vn -0.692971 0.308372 0.651689
vn -0.694230 0.307855 -0.650592
vn -0.999890 0.006223 0.013441
vn -0.999890 0.006223 -0.013441
vn -0.894094 -0.188167 -0.406434
vn -0.893846 -0.188376 0.406883
vn -0.999890 -0.006223 -0.013441
vn -0.999890 -0.006223 0.013441
vn 0.000000 0.733777 -0.679391
vn 0.875537 0.354476 -0.328300
vn 0.000000 0.735922 0.677066
vn 0.878181 0.351213 0.324727
vn 0.000000 -0.735923 0.677065
vn 0.875999 -0.354137 0.327434
vn 0.000000 -0.733778 -0.679390
vn 0.877731 -0.351546 -0.325582
vn 0.643663 0.690057 0.330937
vn 0.639619 0.693089 -0.332439
vn -0.456312 0.815211 0.356666
vn -0.456312 0.815211 -0.356665
vn 0.632677 -0.346023 0.692812
vn 0.636438 0.344609 0.690066
vn -0.510816 -0.337858 0.790518
vn -0.486356 0.352376 0.799556
vn 0.643671 -0.690051 -0.330933
vn 0.639625 -0.693085 0.332435
vn -0.456313 -0.815211 -0.356664
vn -0.456312 -0.815212 0.356664
vn 0.632675 0.346024 -0.692813
vn 0.636440 -0.344607 -0.690065
vn -0.510816 0.337859 -0.790518
vn -0.486354 -0.352376 -0.799556
vn -0.940159 0.242438 0.239426
vn -0.940004 0.236213 -0.246162
vn -0.940159 -0.242438 -0.239426
vn -0.940004 -0.236214 0.246162
vn 0.177299 -0.430031 0.885233
vn 0.176639 -0.430084 -0.885340
vn 0.987476 0.067481 -0.142608
vn 0.987516 0.067375 0.142385
vn 0.692980 0.308369 -0.651680
vn 0.694231 0.307853 0.650592
vn 0.176638 0.430084 0.885340
vn 0.987516 -0.067375 -0.142386
vn 0.177297 0.430032 -0.885233
vn 0.987476 -0.067481 0.142609
vn 0.894097 -0.188163 0.406429
vn 0.893851 -0.188373 -0.406874
vn 0.692971 -0.308372 0.651688
vn 0.694231 -0.307853 -0.650592
vn 0.999890 -0.006222 0.013441
vn 0.999890 -0.006222 -0.013441
vn 0.894094 0.188167 -0.406434
vn 0.893847 0.188375 0.406882
vn 0.999890 0.006223 -0.013441
vn 0.999890 0.006223 0.013441
vn 0.000000 -0.733774 -0.679394
vn -0.875538 -0.354474 -0.328301
vn 0.000000 -0.735928 0.677060
vn -0.878183 -0.351210 0.324724
vn 0.000000 0.735928 0.677060
vn -0.876002 0.354134 0.327431
vn 0.000000 0.733774 -0.679394
vn -0.877731 0.351544 -0.325585
vn -0.643664 -0.690056 0.330936
vn -0.869354 -0.494174 -0.003984
vn 0.456305 -0.815215 0.356666
vn 0.627250 -0.766774 -0.136439
vn -0.632676 0.346024 0.692812
vn -0.636436 -0.344611 0.690067
vn 0.510817 0.337857 0.790518
vn 0.486352 -0.352378 0.799557
vn -0.643668 0.690051 -0.330941
vn -0.639622 0.693084 0.332442
vn 0.456311 0.815210 -0.356671
vn 0.456310 0.815210 0.356670
vn -0.875120 -0.004214 -0.483888
vn -0.636437 0.344608 -0.690067
vn 0.684741 -0.113166 -0.719947
vn 0.486352 0.352377 -0.799558
vn 0.000000 0.707107 0.707107
vn 0.000000 0.707106 0.707107
vn 0.000000 0.707107 0.707107
vn 0.000000 0.707106 0.707108
vn 0.940158 -0.242440 0.239427
vn 0.940003 -0.236215 -0.246164
vn 0.940159 0.242438 -0.239427
vn 0.940003 0.236214 0.246164
usemtl initialShadingGroup
f 3/1/1 4/2/2 7/4/3
f 7/4/3 4/2/2 8/3/4
f 7/5/3 8/6/4 11/8/5
f 11/8/5 8/6/4 12/7/6
f 1/9/7 3/1/1 5/10/8
f 5/10/8 3/1/1 7/4/3
f 4/2/2 2/11/9 8/3/4
f 8/3/4 2/11/9 6/12/10
f 2/11/9 1/9/7 6/12/10
f 6/12/10 1/9/7 5/10/8
f 11/13/5 12/14/6 15/16/11
f 15/16/11 12/14/6 16/15/12
f 6/17/10 5/18/8 10/20/13
f 10/20/13 5/18/8 9/19/14
f 5/21/8 7/22/3 9/24/14
f 9/24/14 7/22/3 11/23/5
f 8/25/4 6/26/10 12/28/6
f 12/28/6 6/26/10 10/27/13
f 15/29/11 16/30/12 19/32/15
f 19/32/15 16/30/12 20/31/16
f 10/33/13 9/34/14 14/36/17
f 14/36/17 9/34/14 13/35/18
f 9/34/14 11/13/5 13/35/18
f 13/35/18 11/13/5 15/16/11
f 12/14/6 10/33/13 16/15/12
f 16/15/12 10/33/13 14/36/17
f 16/37/12 14/38/17 20/40/16
f 20/40/16 14/38/17 18/39/19
f 14/41/17 13/42/18 18/44/19
f 18/44/19 13/42/18 17/43/20
f 13/45/18 15/46/11 17/48/20
f 17/48/20 15/46/11 19/47/15
f 24/50/21 28/51/22 23/49/23
f 23/49/23 28/51/22 27/52/24
f 17/53/20 19/54/15 18/56/19
f 18/56/19 19/54/15 20/55/16
f 21/57/25 23/58/23 25/60/26
f 25/60/26 23/58/23 27/59/24
f 24/61/21 22/62/27 28/64/22
f 28/64/22 22/62/27 26/63/28
f 22/65/27 21/66/25 26/68/28
f 26/68/28 21/66/25 25/67/26
f 29/69/29 30/70/30 31/72/31
f 31/72/31 30/70/30 32/71/32
f 33/73/33 34/74/34 35/76/35
f 35/76/35 34/74/34 36/75/36
f 38/77/37 37/78/38 40/80/39
f 40/80/39 37/78/38 39/79/40
f 42/81/41 41/82/42 44/84/43
f 44/84/43 41/82/42 43/83/44
f 31/72/31 36/85/36 29/69/29
f 29/69/29 36/85/36 34/86/34
f 30/70/30 42/87/41 32/71/32
f 32/71/32 42/87/41 44/88/43
f 35/89/35 39/79/40 33/90/33
f 33/90/33 39/79/40 37/78/38
f 43/91/44 41/92/42 40/80/39
f 40/80/39 41/92/42 38/77/37
f 37/93/38 25/94/26 33/98/33
f 29/96/29 34/97/34 27/95/24
f 34/97/34 33/98/33 27/95/24
f 25/94/26 27/95/24 33/98/33
f 29/96/29 27/95/24 30/100/30
f 30/100/30 27/95/24 28/99/22
f 25/94/26 37/93/38 26/102/28
f 26/102/28 37/93/38 38/101/37
f 38/101/37 41/103/42 26/102/28
f 30/100/30 28/99/22 42/104/41
f 41/103/42 42/104/41 26/102/28
f 26/102/28 42/104/41 28/99/22
f 31/105/31 32/106/32 45/108/45
f 45/108/45 32/106/32 46/107/46
f 40/109/39 39/110/40 48/112/47
f 48/112/47 39/110/40 47/111/48
f 47/111/48 45/108/45 48/112/47
f 48/112/47 45/108/45 46/107/46
f 47/111/48 35/113/35 45/108/45
f 45/108/45 35/113/35 36/114/36
f 43/115/44 48/112/47 44/116/43
f 44/116/43 48/112/47 46/107/46
f 46/107/46 32/106/32 44/116/43
f 31/105/31 45/108/45 36/114/36
f 35/113/35 47/111/48 39/110/40
f 40/109/39 48/112/47 43/115/44
f 51/117/49 52/118/50 55/120/51
f 55/120/51 52/118/50 56/119/52
f 55/121/51 56/122/52 59/124/53
f 59/124/53 56/122/52 60/123/54
f 49/125/55 51/117/49 53/126/56
f 53/126/56 51/117/49 55/120/51
f 52/118/50 50/127/57 56/119/52
f 56/119/52 50/127/57 54/128/58
f 50/127/57 49/125/55 54/128/58
f 54/128/58 49/125/55 53/126/56
f 59/129/53 60/130/54 63/132/59
f 63/132/59 60/130/54 64/131/60
f 54/133/58 53/134/56 58/136/61
f 58/136/61 53/134/56 57/135/62
f 53/137/56 55/138/51 57/140/62
f 57/140/62 55/138/51 59/139/53
f 56/141/52 54/142/58 60/144/54
f 60/144/54 54/142/58 58/143/61
f 63/145/59 64/146/60 67/148/63
f 67/148/63 64/146/60 68/147/64
f 58/149/61 57/150/62 62/152/65
f 62/152/65 57/150/62 61/151/66
f 57/150/62 59/129/53 61/151/66
f 61/151/66 59/129/53 63/132/59
f 60/130/54 58/149/61 64/131/60
f 64/131/60 58/149/61 62/152/65
f 64/153/60 62/154/65 68/156/64
f 68/156/64 62/154/65 66/155/67
f 62/157/65 61/158/66 66/160/67
f 66/160/67 61/158/66 65/159/68
f 61/161/66 63/162/59 65/164/68
f 65/164/68 63/162/59 67/163/63
f 72/166/69 76/167/70 71/165/71
f 71/165/71 76/167/70 75/168/72
f 65/169/68 67/170/63 66/172/67
f 66/172/67 67/170/63 68/171/64
f 69/173/73 71/174/71 73/176/74
f 73/176/74 71/174/71 75/175/72
f 72/177/69 70/178/75 76/180/70
f 76/180/70 70/178/75 74/179/76
f 70/181/75 69/182/73 74/184/76
f 74/184/76 69/182/73 73/183/74
f 77/185/77 78/186/78 79/188/79
f 79/188/79 78/186/78 80/187/80
f 81/189/81 82/190/82 83/192/83
f 83/192/83 82/190/82 84/191/84
f 86/193/85 85/194/86 88/196/87
f 88/196/87 85/194/86 87/195/88
f 90/197/89 89/198/90 92/200/91
f 92/200/91 89/198/90 91/199/92
f 80/201/93 92/202/94 78/204/95
f 78/204/95 92/202/94 90/203/96
f 79/188/79 84/205/84 77/185/77
f 77/185/77 84/205/84 82/206/82
f 83/207/83 87/195/88 81/208/81
f 81/208/81 87/195/88 85/194/86
f 91/209/92 89/210/90 88/196/87
f 88/196/87 89/210/90 86/193/85
f 85/211/86 73/212/74 81/216/81
f 77/214/77 82/215/82 75/213/72
f 82/215/82 81/216/81 75/213/72
f 73/212/74 75/213/72 81/216/81
f 77/214/77 75/213/72 78/218/78
f 78/218/78 75/213/72 76/217/70
f 73/212/74 85/211/86 74/220/76
f 74/220/76 85/211/86 86/219/85
f 78/218/78 76/217/70 90/222/89
f 76/217/70 74/220/76 90/222/89
f 86/219/85 89/221/90 74/220/76
f 74/220/76 89/221/90 90/222/89
f 79/223/79 80/224/80 93/226/97
f 93/226/97 80/224/80 94/225/98
f 88/227/87 87/228/88 96/230/99
f 96/230/99 87/228/88 95/229/100
f 95/229/100 93/226/97 96/230/99
f 96/230/99 93/226/97 94/225/98
f 95/229/100 83/231/83 93/226/97
f 93/226/97 83/231/83 84/232/84
f 91/233/92 96/230/99 92/234/91
f 92/234/91 96/230/99 94/225/98
f 94/225/98 80/224/80 92/234/91
f 79/223/79 93/226/97 84/232/84
f 83/231/83 95/229/100 87/228/88
f 88/227/87 96/230/99 91/233/92
f 52/235/50 2/236/9 50/238/57
f 50/238/57 2/236/9 4/237/2
f 3/239/1 49/240/55 4/242/2
f 4/242/2 49/240/55 50/241/57
f 1/243/7 51/244/49 3/246/1
f 3/246/1 51/244/49 49/245/55
f 51/247/49 1/248/7 52/250/50
f 52/250/50 1/248/7 2/249/9
